<mxfile host="65bd71144e">
    <diagram id="xaji850bb3O5yuO1Ioe8" name="Page-1">
        <mxGraphModel dx="529" dy="1056" grid="1" gridSize="10" guides="1" tooltips="1" connect="1" arrows="1" fold="1" page="1" pageScale="1" pageWidth="850" pageHeight="1100" math="0" shadow="0">
            <root>
                <mxCell id="0"/>
                <mxCell id="1" parent="0"/>
                <mxCell id="2" value="Album" style="whiteSpace=wrap;html=1;" vertex="1" parent="1">
                    <mxGeometry x="450" y="140" width="120" height="40" as="geometry"/>
                </mxCell>
                <mxCell id="4" value="artist" style="whiteSpace=wrap;html=1;" vertex="1" parent="1">
                    <mxGeometry x="280" y="40" width="120" height="40" as="geometry"/>
                </mxCell>
                <mxCell id="5" value="customer" style="whiteSpace=wrap;html=1;" vertex="1" parent="1">
                    <mxGeometry x="70" y="560" width="120" height="40" as="geometry"/>
                </mxCell>
                <mxCell id="28" value="" style="edgeStyle=none;html=1;entryX=1.025;entryY=0.196;entryDx=0;entryDy=0;entryPerimeter=0;" edge="1" parent="1" source="6" target="21">
                    <mxGeometry relative="1" as="geometry">
                        <mxPoint x="190" y="270" as="targetPoint"/>
                        <Array as="points">
                            <mxPoint x="120" y="160"/>
                            <mxPoint x="220" y="160"/>
                            <mxPoint x="220" y="291"/>
                        </Array>
                    </mxGeometry>
                </mxCell>
                <mxCell id="6" value="employee" style="whiteSpace=wrap;html=1;" vertex="1" parent="1">
                    <mxGeometry x="60" y="200" width="120" height="35" as="geometry"/>
                </mxCell>
                <mxCell id="7" value="genre" style="whiteSpace=wrap;html=1;" vertex="1" parent="1">
                    <mxGeometry x="290" y="190" width="120" height="40" as="geometry"/>
                </mxCell>
                <mxCell id="8" value="invoice" style="whiteSpace=wrap;html=1;" vertex="1" parent="1">
                    <mxGeometry x="300" y="470" width="120" height="60" as="geometry"/>
                </mxCell>
                <mxCell id="9" value="innvoiceline" style="whiteSpace=wrap;html=1;" vertex="1" parent="1">
                    <mxGeometry x="480" y="380" width="120" height="60" as="geometry"/>
                </mxCell>
                <mxCell id="10" value="mediatype" style="whiteSpace=wrap;html=1;" vertex="1" parent="1">
                    <mxGeometry x="657.5" y="90" width="120" height="40" as="geometry"/>
                </mxCell>
                <mxCell id="11" value="playlist" style="whiteSpace=wrap;html=1;" vertex="1" parent="1">
                    <mxGeometry x="657.5" y="720" width="120" height="30" as="geometry"/>
                </mxCell>
                <mxCell id="12" value="playlisttrack" style="whiteSpace=wrap;html=1;" vertex="1" parent="1">
                    <mxGeometry x="657.5" y="570" width="120" height="40" as="geometry"/>
                </mxCell>
                <mxCell id="13" value="track" style="whiteSpace=wrap;html=1;" vertex="1" parent="1">
                    <mxGeometry x="657.5" y="210" width="120" height="60" as="geometry"/>
                </mxCell>
                <mxCell id="36" value="" style="edgeStyle=none;html=1;" edge="1" parent="1" source="14" target="13">
                    <mxGeometry relative="1" as="geometry"/>
                </mxCell>
                <mxCell id="14" value="AlbumId (PK)&lt;br&gt;Title&lt;br&gt;ArtistId (FK)" style="whiteSpace=wrap;html=1;" vertex="1" parent="1">
                    <mxGeometry x="450" y="180" width="120" height="60" as="geometry"/>
                </mxCell>
                <mxCell id="19" value="" style="edgeStyle=none;html=1;" edge="1" parent="1" source="17" target="14">
                    <mxGeometry relative="1" as="geometry"/>
                </mxCell>
                <mxCell id="17" value="ArtistId (PK)&lt;br&gt;Name" style="whiteSpace=wrap;html=1;" vertex="1" parent="1">
                    <mxGeometry x="280" y="80" width="120" height="60" as="geometry"/>
                </mxCell>
                <mxCell id="41" value="" style="edgeStyle=none;html=1;" edge="1" parent="1" source="18">
                    <mxGeometry relative="1" as="geometry">
                        <mxPoint x="290" y="613.3333333333335" as="targetPoint"/>
                    </mxGeometry>
                </mxCell>
                <mxCell id="18" value="CustomerId&lt;br&gt;FirstName&lt;br&gt;LastName&lt;br&gt;Company&lt;br&gt;Address&lt;br&gt;City&lt;br&gt;State&lt;br&gt;Country&lt;br&gt;PostalCode&lt;br&gt;Phone&lt;br&gt;Fax&lt;br&gt;Email&lt;br&gt;SupportRepId (FK)" style="whiteSpace=wrap;html=1;" vertex="1" parent="1">
                    <mxGeometry x="70" y="600" width="120" height="280" as="geometry"/>
                </mxCell>
                <mxCell id="40" value="" style="edgeStyle=none;html=1;" edge="1" parent="1" source="21" target="18">
                    <mxGeometry relative="1" as="geometry"/>
                </mxCell>
                <mxCell id="21" value="EmployeeId&lt;br&gt;LastName&lt;br&gt;FirstName&lt;br&gt;Title&lt;br&gt;ReportsTo(FK)&lt;br&gt;BirthDate&lt;br&gt;HireDate&lt;br&gt;Address&lt;br&gt;City&lt;br&gt;State&lt;br&gt;Country&lt;br&gt;PostalCode&lt;br&gt;Phone&lt;br&gt;Fax&lt;br&gt;Email" style="whiteSpace=wrap;html=1;" vertex="1" parent="1">
                    <mxGeometry x="60" y="235" width="120" height="285" as="geometry"/>
                </mxCell>
                <mxCell id="31" value="" style="edgeStyle=none;html=1;" edge="1" parent="1" source="22" target="29">
                    <mxGeometry relative="1" as="geometry"/>
                </mxCell>
                <mxCell id="22" value="GenreId&lt;br&gt;Name" style="whiteSpace=wrap;html=1;" vertex="1" parent="1">
                    <mxGeometry x="290" y="230" width="120" height="90" as="geometry"/>
                </mxCell>
                <mxCell id="23" value="InvoiceId&lt;br&gt;CustomerId&lt;br&gt;InvoiceDate&lt;br&gt;BillingAddress&lt;br&gt;BillingCity&lt;br&gt;BillingState&lt;br&gt;BillingCountry&lt;br&gt;BillingPostalCode&lt;br&gt;Total" style="whiteSpace=wrap;html=1;" vertex="1" parent="1">
                    <mxGeometry x="300" y="530" width="120" height="200" as="geometry"/>
                </mxCell>
                <mxCell id="39" value="" style="edgeStyle=none;html=1;" edge="1" parent="1" source="24" target="23">
                    <mxGeometry relative="1" as="geometry"/>
                </mxCell>
                <mxCell id="24" value="InvoiceLineId&lt;br&gt;InvoiceId(FK)&lt;br&gt;TrackId(FK)&lt;br&gt;UnitPrice&lt;br&gt;Quantity" style="whiteSpace=wrap;html=1;" vertex="1" parent="1">
                    <mxGeometry x="480" y="440" width="120" height="180" as="geometry"/>
                </mxCell>
                <mxCell id="37" value="" style="edgeStyle=none;html=1;" edge="1" parent="1" source="25" target="29">
                    <mxGeometry relative="1" as="geometry"/>
                </mxCell>
                <mxCell id="25" value="MediaTypeId&lt;br&gt;Name" style="whiteSpace=wrap;html=1;" vertex="1" parent="1">
                    <mxGeometry x="657.5" y="130" width="120" height="60" as="geometry"/>
                </mxCell>
                <mxCell id="26" value="PlaylistId&lt;br&gt;Name" style="whiteSpace=wrap;html=1;" vertex="1" parent="1">
                    <mxGeometry x="657.5" y="750" width="120" height="87.5" as="geometry"/>
                </mxCell>
                <mxCell id="33" value="" style="edgeStyle=none;html=1;" edge="1" parent="1" source="27" target="11">
                    <mxGeometry relative="1" as="geometry"/>
                </mxCell>
                <mxCell id="27" value="PlaylistId (PK)&lt;br&gt;TrackId (PK)" style="whiteSpace=wrap;html=1;" vertex="1" parent="1">
                    <mxGeometry x="657.5" y="610" width="120" height="60" as="geometry"/>
                </mxCell>
                <mxCell id="32" value="" style="edgeStyle=none;html=1;entryX=0.5;entryY=0;entryDx=0;entryDy=0;" edge="1" parent="1" source="29" target="12">
                    <mxGeometry relative="1" as="geometry">
                        <mxPoint x="730" y="550" as="targetPoint"/>
                    </mxGeometry>
                </mxCell>
                <mxCell id="38" value="" style="edgeStyle=none;html=1;" edge="1" parent="1" source="29" target="9">
                    <mxGeometry relative="1" as="geometry"/>
                </mxCell>
                <mxCell id="29" value="TrachId (PK)&lt;br&gt;Name&lt;br&gt;AlbumId(FK)&lt;br&gt;GenreId(FK)&lt;br&gt;MediaTypeId(FK)&lt;br&gt;GenreId(FK)&lt;br&gt;Composer&lt;br&gt;Miliseconds&lt;br&gt;Bytes&lt;br&gt;UnitPrice" style="whiteSpace=wrap;html=1;" vertex="1" parent="1">
                    <mxGeometry x="657.5" y="270" width="120" height="230" as="geometry"/>
                </mxCell>
            </root>
        </mxGraphModel>
    </diagram>
</mxfile>